HIERARCHY
ROOT Hips
{
	OFFSET -3.958830 18.904000 13.208200
	CHANNELS 6 Xposition Yposition Zposition Zrotation Yrotation Xrotation 
	JOINT LHipJoint
	{
		OFFSET 0.000000 0.000000 0.000000
		CHANNELS 3 Zrotation Yrotation Xrotation
		JOINT LeftUpLeg
		{
			OFFSET 1.800000 -1.400000 0.085000
			CHANNELS 3 Zrotation Yrotation Xrotation
			JOINT LeftLeg
			{
				OFFSET 2.215000 -6.000000 0.000000
				CHANNELS 3 Zrotation Yrotation Xrotation
				JOINT LeftFoot
				{
					OFFSET 2.500000 -6.900000 0.000000
					CHANNELS 3 Zrotation Yrotation Xrotation
					JOINT LeftToeBase
					{
						OFFSET 0.200000 -0.500000 1.950000
						CHANNELS 3 Zrotation Yrotation Xrotation
						End Site
						{
							OFFSET 0.000000 0.000000 0.000000
						}
					}
				}
			}
		}
	}
	JOINT RHipJoint
	{
		OFFSET 0.000000 0.000000 0.000000
		CHANNELS 3 Zrotation Yrotation Xrotation
		JOINT RightUpLeg
		{
			OFFSET -1.800000 -1.400000 0.085000
			CHANNELS 3 Zrotation Yrotation Xrotation
			JOINT RightLeg
			{
				OFFSET -2.215000 -6.000000 0.000000
				CHANNELS 3 Zrotation Yrotation Xrotation
				JOINT RightFoot
				{
					OFFSET -2.500000 -6.900000 0.000000
					CHANNELS 3 Zrotation Yrotation Xrotation
					JOINT RightToeBase
					{
						OFFSET -0.200000 -0.500000 1.950000
						CHANNELS 3 Zrotation Yrotation Xrotation
						End Site
						{
							OFFSET 0.000000 0.000000 0.000000
						}
					}
				}
			}
		}
	}
	JOINT LowerBack
	{
		OFFSET 0.000000 0.000000 0.000000
		CHANNELS 3 Zrotation Yrotation Xrotation
		JOINT Spine
		{
			OFFSET -0.087000 1.940000 -0.288900
			CHANNELS 3 Zrotation Yrotation Xrotation
			JOINT Spine1
			{
				OFFSET 0.000000 1.950000 0.060000
				CHANNELS 3 Zrotation Yrotation Xrotation
				JOINT Neck
				{
					OFFSET 0.000000 0.000000 0.000000
					CHANNELS 3 Zrotation Yrotation Xrotation
					JOINT Neck1
					{
						OFFSET 0.000000 1.600000 0.340000
						CHANNELS 3 Zrotation Yrotation Xrotation
						JOINT Head
						{
							OFFSET 0.000000 1.667000 -0.240000
							CHANNELS 3 Zrotation Yrotation Xrotation
							End Site
							{
								OFFSET 0.000000 0.000000 0.000000
							}
						}
					}
				}
				JOINT LeftShoulder
				{
					OFFSET 0.000000 0.000000 0.000000
					CHANNELS 3 Zrotation Yrotation Xrotation
					JOINT LeftArm
					{
						OFFSET 2.700000 1.550000 -0.730000
						CHANNELS 3 Zrotation Yrotation Xrotation
						JOINT LeftForeArm
						{
							OFFSET 5.450000 0.000000 0.000000
							CHANNELS 3 Zrotation Yrotation Xrotation
							JOINT LeftHand
							{
								OFFSET 3.450000 0.000000 0.000000
								CHANNELS 3 Zrotation Yrotation Xrotation
								JOINT LeftHandIndex1
								{
									OFFSET 0.750000 0.000000 0.000000
									CHANNELS 3 Zrotation Yrotation Xrotation
									End Site
									{
										OFFSET 0.000000 0.000000 0.000000
									}
								}
							}
						}
					}
				}
				JOINT RightShoulder
				{
					OFFSET 0.000000 0.000000 0.000000
					CHANNELS 3 Zrotation Yrotation Xrotation
					JOINT RightArm
					{
						OFFSET -2.700000 1.550000 -0.730000
						CHANNELS 3 Zrotation Yrotation Xrotation
						JOINT RightForeArm
						{
							OFFSET -5.450000 0.000000 0.000000
							CHANNELS 3 Zrotation Yrotation Xrotation
							JOINT RightHand
							{
								OFFSET -3.450000 0.000000 0.000000
								CHANNELS 3 Zrotation Yrotation Xrotation
								JOINT RightHandIndex1
								{
									OFFSET -0.750000 0.000000 0.000000
									CHANNELS 3 Zrotation Yrotation Xrotation
									End Site
									{
										OFFSET 0.000000 0.000000 0.000000
									}
								}
							}
						}
					}
				}
			}
		}
	}
}
MOTION
Frames: 12
Frame Time: 0.016667
1.389190 18.031840 -3.529240 4.434386 6.061702 9.319108 -14.705095 12.062202 3.004709 -3.948370 -2.400254 -15.739559 -1.503085 2.618039 8.178264 -1.194787 3.563845 3.820654 0.116430 -0.426960 -0.123480 18.764353 -11.805573 3.298912 3.846792 -0.274798 -5.386765 7.065886 -5.652207 9.366957 -0.566436 -4.444791 2.851419 -0.003410 1.134090 0.939830 -5.056165 2.067822 -7.443583 17.956884 6.815766 7.666379 -10.945441 9.221158 3.718008 5.719335 0.247467 -10.299524 1.169427 -5.009607 26.205158 -8.320680 -4.884490 -7.910440 -18.347376 -6.815120 2.761828 -5.045200 3.038912 1.487971 11.674485 3.080057 -1.266083 -4.874348 2.511567 0.701300 0.711270 -0.095010 0.478270 5.665719 11.049768 7.466980 8.845316 13.617792 -1.394698 -16.405031 4.680660 -1.227338 1.964666 -1.419862 -0.447680 0.465250 0.402580 -0.019720 
1.475420 18.037700 -3.558850 4.795550 4.513842 9.423909 -14.716362 12.184277 2.973229 -2.589440 -2.328705 -16.021275 -1.536187 2.585360 7.538794 -1.224828 3.538951 3.804890 0.156270 -0.385460 -0.082620 18.735949 -11.767991 3.274690 3.204837 -0.290382 -5.461649 6.613774 -5.491803 8.837853 -0.580562 -4.359451 2.852727 0.018510 1.080990 0.935450 -4.966950 1.796458 -7.442584 17.414163 6.500418 8.089127 -11.237850 9.071537 3.518666 5.661844 -0.105050 -10.080390 0.364190 -4.851984 26.669496 -8.327030 -4.894280 -9.390230 -18.985127 -7.159353 2.549916 -3.390023 1.462539 1.654873 10.627640 7.271961 -1.161196 -4.890385 2.463462 0.741760 0.667000 -0.057270 0.468300 6.445275 11.308130 7.330791 6.760373 13.386904 -1.367687 -15.018671 4.625488 -1.054505 1.972422 -1.376066 -0.441490 0.461970 0.387980 -0.035750 
1.557240 18.030080 -3.583240 4.961784 2.793850 9.706016 -14.706230 12.269971 2.932227 -0.729052 -2.223886 -16.362118 -2.278797 2.717451 6.980937 -1.232647 3.607589 3.795783 0.184080 -0.368360 -0.058950 18.724025 -11.758955 3.234084 2.002282 -0.074057 -5.740243 7.200219 -5.577792 9.050957 -0.580519 -4.383417 2.852304 0.035900 1.090630 0.925730 -4.930538 1.639226 -7.414918 17.101241 6.208338 8.077898 -11.538342 8.871729 3.325523 5.526932 -0.665361 -9.846774 -0.658432 -4.115777 26.712592 -8.105300 -4.577120 -9.469410 -19.661238 -7.495484 2.372736 -2.223027 0.224799 1.651973 10.418806 11.620460 -0.943589 -4.937723 2.427890 0.753260 0.665920 -0.061980 0.488280 7.420449 11.763917 7.173406 4.849377 13.498899 -1.475138 -14.295447 4.481764 -1.021590 1.972965 -1.367200 -0.456540 0.480130 0.364850 -0.039470 
1.635900 17.999260 -3.591620 5.044242 1.009260 10.457873 -14.696092 12.267113 2.871532 0.859083 -2.177712 -16.902081 -2.610912 2.732127 6.264769 -1.262909 3.682037 3.801100 0.181440 -0.373130 -0.063020 18.742149 -11.732141 3.166707 0.968488 0.103237 -6.169480 7.540730 -5.581513 8.925636 -0.558792 -4.411581 2.843737 0.060960 1.155170 0.920420 -4.938375 1.581583 -7.289277 16.754074 6.059565 7.004360 -11.810327 8.606204 3.701342 5.272564 -1.225131 -9.423022 -1.485698 -3.261119 25.486299 -7.886170 -4.108750 -9.024050 -19.699840 -7.700657 2.207101 -1.163172 -1.121433 1.622676 9.551324 15.509731 -0.848746 -5.024265 2.392611 0.735010 0.706420 -0.097250 0.508180 8.096196 11.817669 6.830506 3.460652 13.644060 -1.457926 -13.744082 5.341620 -1.105114 1.939762 -1.374323 -0.494140 0.522090 0.366060 -0.031130 
1.715610 17.958170 -3.590220 5.036515 0.142787 11.079353 -14.706677 12.227984 2.808702 2.510860 -2.104135 -17.220806 -2.937742 2.723702 5.305353 -1.313126 3.789729 3.771130 0.178150 -0.378170 -0.066220 18.751584 -11.686939 3.089030 0.088706 0.311141 -6.501652 8.193499 -5.721142 9.204049 -0.543703 -4.504783 2.799681 0.091260 1.206090 0.938010 -4.923794 1.557760 -7.132213 16.354891 6.039664 5.602423 -11.629007 8.237088 4.404083 5.176455 -1.349501 -8.939921 -1.482910 -2.716811 23.900194 -8.370570 -3.474020 -8.639730 -19.021324 -7.206112 2.025614 -0.918969 -1.743534 1.792690 8.890366 13.369375 -1.188740 -5.056966 2.407373 0.712790 0.762480 -0.134990 0.506750 7.781627 10.921078 6.340955 3.429394 13.604782 -1.324515 -13.936511 7.034494 -1.282692 1.864117 -1.413621 -0.522240 0.537820 0.389100 -0.039340 
1.780220 17.919040 -3.583720 4.961374 -1.103612 11.838452 -14.712908 12.172567 2.752228 3.885391 -2.054724 -17.568800 -2.991102 2.681568 4.436137 -1.258612 3.851711 3.773003 0.140360 -0.394830 -0.136010 18.767678 -11.647502 3.018051 -0.620222 0.459916 -7.016769 8.487364 -5.714906 9.124689 -0.485592 -4.568495 2.803138 0.095540 1.291050 0.957040 -4.923790 1.570350 -6.979207 15.960340 6.235863 3.996532 -11.479851 8.142813 5.166886 4.792640 -1.837566 -8.730878 -2.078576 -2.113442 22.473525 -8.227440 -3.178220 -6.332040 -17.625662 -6.646238 1.972496 -1.472995 -2.368899 1.868527 8.116831 11.056763 -1.403319 -5.108103 2.477384 0.594470 0.850230 -0.207640 0.526530 7.368751 10.396397 6.130186 3.849394 13.071271 -1.277443 -14.942563 9.523840 -1.601949 1.807794 -1.501443 -0.505190 0.523340 0.403400 0.003350 
1.850800 17.900420 -3.587120 4.807105 -1.656477 12.198041 -14.736105 12.191309 2.721571 5.051605 -2.016066 -17.994000 -2.979911 2.701599 4.102835 -1.265935 3.969878 3.763437 0.079370 -0.462800 -0.192090 18.755403 -11.568754 2.969417 -1.196556 0.583886 -7.256233 8.906064 -5.776930 9.066969 -0.437715 -4.636349 2.797411 0.085610 1.388450 0.966070 -4.868931 1.388936 -6.895271 15.810215 5.880694 3.156384 -11.309487 7.642682 5.632710 4.562155 -2.217499 -8.626480 -2.631296 -1.377823 21.546157 -8.494510 -2.646110 -4.603250 -16.912705 -6.504531 1.877695 -1.827089 -3.304292 1.999758 7.008363 9.853476 -1.601365 -5.176601 2.479535 0.539360 0.931280 -0.278910 0.531790 7.271090 10.145350 6.065938 3.780452 12.491912 -1.152455 -14.631356 9.979533 -1.627967 1.773623 -1.519725 -0.541650 0.545100 0.444180 0.016450 
1.924880 17.908080 -3.586040 4.189209 -1.976165 12.002984 -14.721702 12.278384 2.722488 6.529345 -1.839184 -17.825644 -3.236917 2.814253 3.840189 -1.209780 4.063001 3.730131 0.039110 -0.515110 -0.218880 18.754335 -11.515106 2.968398 -1.300099 0.594897 -7.033019 9.130627 -5.873773 9.280962 -0.442113 -4.643056 2.805204 0.035670 1.389400 0.963710 -4.881332 1.147404 -6.947917 16.946221 5.046437 3.476568 -11.728220 7.002446 5.472070 4.378213 -2.694627 -8.912812 -3.625066 -0.769557 22.099339 -8.240170 -2.307910 -4.239510 -16.911563 -6.662319 2.205895 -1.650605 -2.167214 2.022523 6.087503 6.705266 -1.742804 -5.092400 2.504981 0.551060 0.916090 -0.274470 0.525640 7.595148 10.425582 6.261674 3.404371 11.448563 -1.514286 -15.020600 10.795769 -1.603660 1.782873 -1.493873 -0.537920 0.533830 0.457440 0.023210 
1.987610 17.913050 -3.574880 3.747239 -2.639117 11.815383 -14.723808 12.395562 2.728390 7.658019 -1.679907 -17.560983 -3.465007 2.964565 3.959274 -1.155065 4.170463 3.705187 -0.003100 -0.569860 -0.239150 18.732301 -11.476631 2.944254 -1.544234 0.668893 -6.986034 9.113262 -5.997847 10.040151 -0.441125 -4.655032 2.811779 -0.014370 1.406000 0.969890 -4.834794 0.876638 -6.982602 17.403515 4.315713 3.786800 -12.069184 6.468338 5.311174 4.351776 -2.956281 -9.367708 -4.219741 -0.470743 22.298580 -8.405780 -1.975980 -3.754840 -17.537894 -7.467899 2.621121 -0.800116 -1.496226 1.903778 6.497440 7.796766 -1.686303 -5.096263 2.493272 0.558410 0.916830 -0.270130 0.526040 8.286594 11.227518 6.693733 2.667408 9.997614 -1.849205 -15.012408 11.817542 -1.560485 1.783185 -1.467012 -0.538480 0.530180 0.465390 0.033530 
2.055350 17.918170 -3.565520 2.873932 -3.486825 11.684381 -14.706997 12.459730 2.735425 8.954873 -1.498018 -17.114794 -3.841607 3.112550 3.864610 -1.102541 4.251536 3.644351 0.015290 -0.547370 -0.224850 18.738135 -11.452406 2.920118 -1.333257 0.767863 -7.127385 8.909128 -6.077923 11.073959 -0.457485 -4.635477 2.810363 -0.025250 1.350810 0.974950 -4.853952 0.729367 -6.999088 18.464176 3.901240 4.027292 -12.129618 6.139268 5.095421 4.214265 -3.243774 -9.415492 -4.849789 0.124638 22.654960 -8.272330 -1.420160 -4.289630 -17.821225 -7.452259 2.725139 -0.028923 -0.543402 1.986851 4.905500 5.525369 -1.819366 -4.997208 2.549079 0.570540 0.880930 -0.237240 0.517160 8.798519 11.165454 6.692767 1.789107 8.779954 -2.015396 -14.588142 13.091903 -1.458359 1.779232 -1.457912 -0.503050 0.492260 0.451070 0.028080 
2.122910 17.914930 -3.557560 2.637027 -4.513945 11.688953 -14.709134 12.484966 2.730100 9.240717 -1.464791 -16.618170 -4.087338 3.194464 3.818179 -1.084933 4.325355 3.629546 0.004960 -0.552330 -0.231300 18.734367 -11.441102 2.874757 -1.971040 0.863443 -7.352442 8.977893 -6.145558 11.461222 -0.445881 -4.661452 2.802030 -0.023770 1.370520 0.972620 -4.836119 0.657370 -6.952307 18.485566 3.549286 3.717351 -12.172036 5.715107 5.289649 4.167678 -3.169044 -9.283177 -4.729500 0.863734 22.368264 -8.185500 -0.667410 -3.909570 -18.140103 -7.468816 2.901466 0.609335 0.394371 2.041209 4.723766 5.036473 -1.834829 -4.984071 2.573349 0.555920 0.898390 -0.248740 0.521110 9.242304 10.873728 6.393409 1.271772 8.672849 -1.968208 -13.913127 13.865023 -1.414363 1.768787 -1.458727 -0.511630 0.495860 0.449540 0.031870 
2.177070 17.903760 -3.549220 2.496319 -5.034199 11.680670 -14.730504 12.530602 2.725323 9.283348 -1.466599 -16.295134 -4.202447 3.255261 3.874729 -1.093176 4.388162 3.634008 -0.000060 -0.563020 -0.238910 18.715419 -11.409220 2.836175 -2.275513 0.864482 -7.437246 8.772515 -6.118136 11.615046 -0.425844 -4.653095 2.822496 -0.014840 1.407870 0.947630 -4.773424 0.508097 -6.911485 18.116173 3.119961 3.418814 -12.006137 5.253396 5.543986 3.987293 -3.240764 -9.347652 -4.843243 1.036632 21.889527 -7.594250 -0.862750 -3.689860 -18.107891 -7.848831 3.026234 0.659166 -0.183325 1.961574 5.568971 6.714487 -1.793822 -5.020963 2.538807 0.555030 0.909690 -0.276010 0.535380 9.660961 11.081134 6.455096 1.050403 8.567801 -1.914925 -13.642449 12.604539 -1.368012 1.783495 -1.444457 -0.543900 0.534120 0.448460 0.034740 
